# xmcd CD database file
#
# Track frame offsets:
#	150
#	39095
#	74447
#	113226
#	146681
#	182929
#	218981
#	261003
#
# Disc length: 3758 seconds
#
# Revision: 0
# Processed by: cddbd v1.5.1PL0 Copyright (c) Steve Scherf et al.
# Submitted via: CDex 1.51
#
DISCID=770eac08
DTITLE=Jesse Van Ruller - Live At Murphy's Law
DYEAR=2004
DGENRE=Jazz
TTITLE0=Isfahan
TTITLE1=Along Came Betty
TTITLE2=The End Of A Love Affair
TTITLE3=Detour Ahead
TTITLE4=Get Out Of Town
TTITLE5=Nobody Else But Me
TTITLE6=Goodbye
TTITLE7=Sandu
EXTD=YEAR: 2004
EXTT0=
EXTT1=
EXTT2=
EXTT3=
EXTT4=
EXTT5=
EXTT6=
EXTT7=
PLAYORDER=
